<svg width="16" height="16" viewBox="0 0 16 16" fill="none" xmlns="http://www.w3.org/2000/svg">
  <path fill-rule="evenodd" clip-rule="evenodd" d="M8 0C3.582 0 0 3.582 0 8c0 4.418 3.582 8 8 8s8-3.582 8-8c0-4.418-3.582-8-8-8zm0 14.43c-1.54 0-3.08-.564-4.26-1.69l-.39-.39c-.42-.42-.777-.777-.906-1.248-.13-.492-.13-1.048-.13-1.65 0-3.422 2.73-6.152 6.152-6.152 1.59 0 3.08.623 4.215 1.757l-.585.585c-.453.453-.546 1.113-.273 1.707.183.416.49.737.905.92.593.273 1.254.18 1.707-.273l.585-.585C14.563 4.01 15.27 6.18 15.27 8c0 3.87-3.13 7-7 7z" fill="#fff"/>
  <path fill-rule="evenodd" clip-rule="evenodd" d="M10.108 7.874c-.084-.1-.53-.47-.612-.537-.08-.065-.163-.086-.298-.04-.136.046-.617.188-.951.255-.334.065-.62.11-.848-.063-.227-.173-.507-.548-.597-.637-.09-.088-.514-.27-.978-.11-.464.16-1.821.683-2.62 1.933-.8 1.25-1.015 2.535-.878 2.735.136.2.72.348 1.214.232.494-.117 1.79-.467 2.946-1.67 1.156-1.202 1.668-2.414 1.816-2.614.148-.2.08-.372.01-.448-.068-.074-.49-.363-.583-.43z" fill="#FFFf"/>
</svg>
